<?xml version="1.0" encoding="iso-8859-1"?>
<!-- Generator: Adobe Illustrator 16.0.0, SVG Export Plug-In . SVG Version: 6.00 Build 0)  -->
<!DOCTYPE svg PUBLIC "-//W3C//DTD SVG 1.1//EN" "http://www.w3.org/Graphics/SVG/1.1/DTD/svg11.dtd">
<svg version="1.1" id="Capa_1" xmlns="http://www.w3.org/2000/svg" xmlns:xlink="http://www.w3.org/1999/xlink" x="0px" y="0px"
	 width="134.262px" height="134.262px" viewBox="0 0 134.262 134.262" style="enable-background:new 0 0 134.262 134.262;"
	 xml:space="preserve">
<g>
	<path d="M113.213,87.188l-0.554-3.859c-0.086-0.649-0.192-1.289-0.3-1.93l-0.319-1.919c-0.198-1.285-0.457-2.564-0.696-3.839
		c-0.121-0.64-0.238-1.279-0.37-1.92l-0.411-1.909l-0.406-1.909l-0.468-1.899l-0.462-1.904c-0.157-0.635-0.34-1.264-0.508-1.892
		l-0.513-1.894l-0.569-1.876c-0.192-0.625-0.375-1.254-0.578-1.879l-0.63-1.866c-0.823-2.491-1.788-4.938-2.803-7.368
		c-0.254-0.607-0.533-1.206-0.803-1.808c-0.274-0.599-0.533-1.206-0.833-1.8c-0.589-1.186-1.157-2.376-1.808-3.537l-0.478-0.874
		l-0.238-0.437l-0.254-0.427l-1.021-1.714c-0.335-0.573-0.716-1.125-1.077-1.686l-0.548-0.838c-0.188-0.274-0.386-0.546-0.579-0.815
		c-1.519-2.201-3.215-4.285-5.048-6.256c-1.838-1.965-3.828-3.806-5.981-5.461c-1.102-0.846-2.255-1.648-3.438-2.387l0.076-0.265
		c0.096-0.353,0.223-0.7,0.294-1.061l0.233-1.077c0.112-0.721,0.234-1.444,0.285-2.173l0.051-0.546l0.02-0.546
		c0.011-0.363,0.031-0.729,0.021-1.092c-0.01-0.363-0.01-0.729-0.03-1.087L82.4,12.354l-0.132-1.081
		c-0.051-0.358-0.111-0.711-0.162-1.066c-0.122-0.706-0.274-1.409-0.442-2.105c-0.173-0.698-0.37-1.383-0.594-2.059
		c-0.224-0.676-0.473-1.349-0.731-2.009c-0.264-0.66-0.563-1.31-0.884-1.955c-0.152-0.322-0.319-0.64-0.497-0.957l-0.184-0.327
		c-0.01-0.025-0.03-0.046-0.04-0.071c-0.056-0.109-0.112-0.208-0.183-0.322l-0.107-0.173l-0.146-0.224V0l-4.164,2.646l0.162,0.34
		c0.041,0.096,0.082,0.201,0.122,0.31c0.076,0.229,0.147,0.464,0.203,0.703c0.122,0.478,0.168,0.973,0.193,1.46
		c0.02,0.982-0.203,1.96-0.62,2.94c-0.213,0.488-0.477,0.965-0.787,1.44c-0.299,0.477-0.675,0.934-1.051,1.394
		c-0.203,0.219-0.406,0.457-0.609,0.665l-0.305,0.308l-0.147,0.155l-0.192,0.178l-0.757,0.696c-0.284,0.264-0.579,0.521-0.854,0.807
		c-0.274,0.279-0.548,0.556-0.808,0.858l-0.386,0.442l-0.305,0.388c-1.82-0.406-3.661-0.701-5.507-0.889
		c-0.67-0.083-1.348-0.109-2.023-0.16c-0.676-0.043-1.346-0.054-2.023-0.079c-1.346-0.01-2.691,0.005-4.035,0.094
		c-1.341,0.066-2.679,0.214-4.009,0.379c-1.325,0.183-2.65,0.391-3.956,0.66c-2.623,0.525-5.2,1.216-7.734,2.059
		c-1.267,0.422-2.521,0.884-3.758,1.389c-0.625,0.254-1.239,0.515-1.858,0.79c-0.305,0.142-0.612,0.282-0.924,0.432l-0.467,0.224
		l-0.495,0.256l-6.744,3.446l7.571,1.166l1.028,0.162l1.051,0.175c0.701,0.127,1.404,0.256,2.1,0.401
		c0.698,0.14,1.394,0.297,2.084,0.447l1.036,0.249c0.342,0.083,0.68,0.178,1.023,0.267c0.34,0.089,0.683,0.178,1.016,0.281
		l1.003,0.295l0.982,0.322c0.333,0.094,0.645,0.224,0.967,0.338l0.48,0.173c0.155,0.063,0.305,0.129,0.457,0.192l0.307,0.13
		c-0.401,0.625-0.797,1.252-1.181,1.881c-0.858,1.414-1.686,2.833-2.491,4.26c-1.617,2.849-3.151,5.728-4.649,8.625
		c-2.986,5.794-5.814,11.659-8.475,17.608c-1.333,2.973-2.623,5.974-3.839,9.018c-0.609,1.523-1.201,3.047-1.762,4.611
		c-0.561,1.559-1.097,3.128-1.562,4.783c-0.229,0.823-0.447,1.666-0.612,2.595c-0.083,0.457-0.152,0.96-0.183,1.514l-0.01,0.452
		c0,0.152,0.015,0.355,0.03,0.527c0.005,0.076,0.021,0.193,0.043,0.311c0.02,0.116,0.041,0.223,0.066,0.34l0.01,0.041
		c-0.005-0.011,0.079,0.273,0.048,0.162l0.01,0.03l0.025,0.076l0.048,0.147l0.046,0.143l0.025,0.07l0.053,0.127
		c0.066,0.168,0.14,0.33,0.218,0.493c0.036,0.081,0.076,0.173,0.114,0.233l0.109,0.193l0.223,0.381
		c0.16,0.233,0.323,0.472,0.493,0.69c0.178,0.208,0.351,0.432,0.536,0.614c0.734,0.771,1.519,1.381,2.311,1.909
		c1.589,1.036,3.217,1.768,4.85,2.377c0.817,0.299,1.646,0.568,2.471,0.812c0.416,0.121,0.833,0.233,1.249,0.345l0.635,0.157
		l0.322,0.071l0.353,0.076l1.315,0.284l0.988-1.041l0.328-0.34l0.36-0.365c0.239-0.244,0.493-0.488,0.741-0.731
		c0.506-0.478,1.016-0.96,1.546-1.422c1.043-0.944,2.135-1.828,3.24-2.701l1.684-1.26l1.727-1.203l1.767-1.138l1.805-1.066
		c0.609-0.351,1.227-0.655,1.841-0.99l0.462-0.244l0.475-0.218l0.939-0.442c0.317-0.142,0.625-0.305,0.947-0.432l0.962-0.381
		l0.962-0.396c0.322-0.127,0.65-0.224,0.978-0.335l0.978-0.325l0.487-0.168l0.563-0.183l0.518-0.168l0.261-0.081l0.285-0.102
		c0.386-0.142,0.777-0.279,1.15-0.427c1.478-0.578,2.928-1.279,4.316-2.143c1.392-0.853,2.712-1.868,3.89-3.047
		c1.179-1.183,2.22-2.523,3.058-3.981c0.838-1.452,1.478-3.006,1.929-4.58c0.452-1.582,0.727-3.184,0.874-4.773
		c0.142-1.592,0.132-3.173,0.056-4.732c-0.071-1.564-0.274-3.092-0.503-4.61c-0.137-0.757-0.254-1.514-0.416-2.258l-0.233-1.119
		l-0.244-1.097c-0.168-0.744-0.381-1.465-0.573-2.199c-0.198-0.729-0.422-1.452-0.635-2.173l-0.646-2.211l-2.214,0.521l0,0
		c-0.406,0.124-0.808,0.238-1.203,0.376c-0.387,0.145-0.782,0.274-1.158,0.432c-0.762,0.31-1.498,0.649-2.204,1.018
		c-0.713,0.368-1.404,0.765-2.069,1.181c-0.673,0.417-1.323,0.854-1.955,1.311c-0.635,0.452-1.25,0.927-1.846,1.409
		c-0.599,0.485-1.181,0.982-1.754,1.493l-0.846,0.774l-0.828,0.79l-0.8,0.812l-0.787,0.82c-0.513,0.559-1.023,1.12-1.519,1.691
		c-0.493,0.571-0.978,1.147-1.445,1.742c-0.238,0.292-0.467,0.589-0.695,0.889c-0.231,0.297-0.459,0.599-0.678,0.898
		c-0.224,0.303-0.447,0.604-0.66,0.917c-0.219,0.307-0.432,0.614-0.64,0.927c-0.421,0.617-0.825,1.247-1.221,1.881
		c-0.396,0.634-0.774,1.28-1.132,1.935c-0.183,0.323-0.361,0.655-0.531,0.983c-0.178,0.327-0.338,0.66-0.505,0.998
		c-0.328,0.666-0.625,1.353-0.909,2.034c0.373-0.64,0.764-1.27,1.173-1.884c0.208-0.305,0.411-0.612,0.63-0.909
		c0.213-0.302,0.432-0.599,0.655-0.889c0.447-0.589,0.907-1.165,1.374-1.731c0.467-0.566,0.947-1.122,1.44-1.666
		c0.246-0.274,0.495-0.539,0.744-0.805c0.249-0.271,0.505-0.53,0.759-0.789c0.254-0.267,0.51-0.521,0.774-0.774
		c0.261-0.262,0.521-0.511,0.787-0.76c0.523-0.505,1.064-0.995,1.61-1.473c0.546-0.477,1.104-0.947,1.666-1.404l0.853-0.675
		l0.863-0.655l0.873-0.635l0.889-0.609c0.597-0.403,1.201-0.789,1.811-1.152c0.607-0.366,1.227-0.719,1.851-1.041
		c0.622-0.328,1.251-0.635,1.886-0.914c0.635-0.287,1.274-0.541,1.914-0.764c0.533-0.193,1.072-0.351,1.61-0.495
		c0.167,0.645,0.355,1.29,0.497,1.94l0.244,1.023l0.213,1.026c0.152,0.686,0.254,1.366,0.376,2.054
		c0.203,1.366,0.396,2.74,0.447,4.096c0.071,1.358,0.076,2.712-0.041,4.032c-0.243,2.635-0.914,5.162-2.163,7.32
		c-1.249,2.166-3.072,3.948-5.271,5.299c-1.102,0.676-2.288,1.26-3.532,1.747c-0.305,0.122-0.602,0.224-0.909,0.335L59.47,74.56
		l-0.259,0.087l-0.521,0.162l-1.031,0.341l-1.102,0.37c-0.363,0.122-0.739,0.233-1.097,0.376l-1.071,0.432l-1.072,0.432
		c-0.358,0.143-0.696,0.32-1.051,0.478l-1.043,0.492l-0.521,0.244l-0.511,0.264c-0.675,0.365-1.355,0.706-2.021,1.087l-1.973,1.163
		l-1.917,1.238l-1.874,1.3c-0.607,0.452-1.216,0.904-1.818,1.371c-1.19,0.939-2.371,1.89-3.501,2.91
		c-0.571,0.498-1.127,1.021-1.678,1.549c-0.208,0.203-0.417,0.406-0.625,0.609c-0.292-0.081-0.582-0.157-0.874-0.238
		c-0.724-0.209-1.44-0.447-2.138-0.706c-1.394-0.513-2.729-1.128-3.847-1.869c-0.556-0.365-1.051-0.762-1.43-1.168
		c-0.104-0.097-0.172-0.203-0.261-0.3c-0.079-0.096-0.14-0.197-0.213-0.289l-0.083-0.143L25.9,84.686
		c-0.015-0.025-0.01-0.025-0.015-0.036c-0.01-0.02-0.02-0.04-0.036-0.061l-0.013-0.01l-0.021-0.066l-0.045-0.147l-0.031-0.091
		c0-0.016-0.005-0.025-0.005-0.062c0-0.051,0.005-0.102,0-0.152c0.021-0.249,0.051-0.559,0.114-0.894
		c0.119-0.665,0.3-1.392,0.503-2.123c0.411-1.462,0.917-2.955,1.452-4.438c0.536-1.493,1.112-2.971,1.699-4.453
		c1.186-2.961,2.455-5.906,3.765-8.836c2.625-5.855,5.418-11.651,8.356-17.356c1.478-2.859,2.991-5.688,4.56-8.465
		c0.787-1.389,1.587-2.768,2.415-4.119c0.825-1.346,1.668-2.678,2.552-3.925l1.518-2.163l-2.153-1.305l-1.127-0.68
		c-0.376-0.203-0.749-0.381-1.125-0.569c-0.185-0.099-0.368-0.175-0.556-0.254l-0.556-0.234c-0.188-0.078-0.368-0.162-0.556-0.233
		l-0.556-0.203c-0.368-0.132-0.739-0.282-1.107-0.396l-1.102-0.358l-1.11-0.322c-0.368-0.114-0.736-0.208-1.107-0.308
		c-0.224-0.059-0.452-0.119-0.675-0.178c2.125-0.681,4.283-1.247,6.469-1.684c1.206-0.249,2.417-0.437,3.633-0.609
		c1.216-0.145,2.435-0.285,3.656-0.348c1.221-0.083,2.438-0.094,3.661-0.083c0.607,0.03,1.216,0.036,1.826,0.079
		c0.602,0.046,1.211,0.074,1.812,0.145c1.14,0.114,2.272,0.277,3.397,0.48c-0.241,0.612-0.442,1.231-0.584,1.866
		c-0.188,0.759-0.302,1.529-0.343,2.298c-0.051,0.769-0.025,1.534,0.053,2.292c0.086,0.754,0.234,1.498,0.457,2.212
		c0.224,0.711,0.508,1.414,0.914,2.039c0.089-0.734,0.203-1.437,0.337-2.118c0.137-0.681,0.287-1.346,0.47-1.985
		c0.175-0.645,0.384-1.27,0.603-1.879c0.113-0.3,0.238-0.597,0.353-0.894c0.132-0.287,0.254-0.576,0.391-0.863
		c0.127-0.284,0.29-0.556,0.427-0.838c0.157-0.27,0.3-0.546,0.462-0.805c0.081-0.145,0.178-0.292,0.265-0.432
		c0.243-0.374,0.518-0.734,0.781-1.092c0.396-0.475,0.782-0.947,1.229-1.379l0.325-0.327l0.345-0.312
		c0.224-0.213,0.462-0.411,0.701-0.607c0.111-0.094,0.224-0.188,0.345-0.277c0.127-0.099,0.265-0.198,0.396-0.297l0.843-0.655
		l0.208-0.16l0.239-0.203l0.467-0.406c0.314-0.269,0.584-0.546,0.873-0.827c0.533-0.562,1.066-1.133,1.534-1.783l0.02,0.14
		l0.133,0.896c0.04,0.295,0.051,0.597,0.091,0.894c0.036,0.297,0.046,0.597,0.066,0.894l0.025,0.446l0.005,0.447
		c0.025,0.599-0.016,1.186-0.035,1.785c-0.031,0.281-0.057,0.561-0.082,0.843c0,0.015-0.01,0.03-0.01,0.041
		c-0.01,0.297-0.081,0.586-0.122,0.878l-0.071,0.441l-0.091,0.432l-0.102,0.437c-0.03,0.147-0.062,0.292-0.102,0.437l-0.249,0.873
		c-0.086,0.287-0.198,0.562-0.3,0.848c-0.051,0.14-0.102,0.282-0.152,0.426l-0.04,0.104l-0.132,0.312
		c-0.133,0.276-0.224,0.571-0.346,0.848c-0.264,0.556-0.487,1.138-0.767,1.704c-0.138,0.282-0.249,0.594-0.401,0.881
		c-0.143,0.289-0.284,0.586-0.427,0.894c-0.127,0.317-0.289,0.606-0.437,0.924c-0.152,0.312-0.289,0.64-0.416,0.988
		c0.34-0.112,0.67-0.249,1-0.399c0.168-0.074,0.32-0.158,0.492-0.234c0.163-0.078,0.305-0.178,0.457-0.271
		c0.305-0.188,0.6-0.383,0.895-0.592c0.152-0.099,0.284-0.218,0.426-0.332c0.138-0.114,0.27-0.234,0.406-0.355
		c0.554-0.457,1.011-1.014,1.493-1.564c0.213-0.287,0.422-0.584,0.625-0.883l0.116-0.178c0.854,0.556,1.696,1.15,2.509,1.772
		c1.92,1.478,3.717,3.131,5.378,4.916c1.665,1.783,3.219,3.692,4.615,5.72c0.178,0.249,0.36,0.498,0.533,0.754l0.503,0.774
		c0.335,0.52,0.681,1.028,1,1.559l0.945,1.597l0.238,0.401l0.224,0.409l0.446,0.818c0.604,1.081,1.148,2.204,1.696,3.318
		c0.284,0.551,0.528,1.132,0.787,1.693c0.254,0.571,0.519,1.135,0.767,1.711c0.96,2.308,1.874,4.639,2.671,7.021l0.6,1.782
		c0.193,0.6,0.371,1.201,0.554,1.806l0.543,1.805l0.503,1.823c0.167,0.609,0.34,1.219,0.492,1.825l0.447,1.841l0.446,1.844
		l0.401,1.849l0.401,1.848c0.122,0.62,0.238,1.25,0.355,1.869c0.233,1.239,0.487,2.483,0.681,3.737l0.31,1.874
		c0.106,0.624,0.208,1.249,0.289,1.879l0.295,2.057c-0.797,0.406-1.595,0.817-2.371,1.259c-1.315,0.701-2.595,1.468-3.885,2.214
		c-1.27,0.772-2.544,1.534-3.788,2.347c-1.26,0.792-2.479,1.625-3.707,2.447c-1.219,0.843-2.442,1.671-3.636,2.549
		c-1.209,0.854-2.387,1.737-3.575,2.62c-1.178,0.895-2.356,1.777-3.509,2.697c-1.163,0.903-2.311,1.833-3.458,2.757
		c-1.138,0.939-2.275,1.869-3.402,2.823c-1.127,0.949-2.239,1.92-3.352,2.879l-1.66,1.458l-1.65,1.473
		c-1.087,0.979-2.184,1.97-3.258,2.976c-1.082,1-2.153,2.011-3.214,3.026c-1.066,1.016-2.12,2.041-3.171,3.077
		c-1.051,1.031-2.089,2.066-3.125,3.123c-0.406,0.411-0.8,0.817-1.201,1.234c-0.5-0.671-0.957-1.366-1.369-2.093
		c-0.858-1.519-1.5-3.158-1.912-4.854c-0.198-0.853-0.328-1.727-0.401-2.6c-0.063-0.884-0.063-1.768,0.005-2.656
		c0.079-0.883,0.198-1.777,0.406-2.655c0.051-0.219,0.099-0.442,0.155-0.66l0.183-0.635c0.104-0.411,0.297-0.889,0.447-1.346
		l0.063-0.168l0.015-0.046l0.005-0.02l0.005-0.011c-0.025,0.062-0.005,0.011-0.01,0.021l0.031-0.081l0.129-0.335l0.267-0.671
		l0.531-1.351c0.358-0.894,0.716-1.787,1.086-2.676c0.731-1.782,1.496-3.56,2.245-5.348c0.371-0.908,0.739-1.808,1.056-2.742
		c0.173-0.457,0.302-0.934,0.452-1.401l0.188-0.711c0.069-0.238,0.12-0.477,0.168-0.721c0.218-0.955,0.333-1.925,0.437-2.895
		c0.041-0.482,0.076-0.965,0.114-1.452l0.066-1.447l-0.223,1.438c-0.089,0.467-0.17,0.949-0.264,1.416
		c-0.208,0.939-0.421,1.874-0.729,2.783c-0.068,0.229-0.145,0.452-0.233,0.675l-0.254,0.665c-0.193,0.438-0.365,0.879-0.579,1.306
		c-0.399,0.863-0.858,1.706-1.315,2.554c-0.924,1.691-1.876,3.377-2.803,5.084c-0.467,0.853-0.919,1.711-1.378,2.569l-0.675,1.294
		l-0.338,0.646l-0.165,0.325l-0.043,0.081l-0.051,0.111l-0.079,0.163l-0.312,0.66c-0.104,0.203-0.208,0.446-0.307,0.69l-0.294,0.736
		c-0.094,0.243-0.173,0.487-0.256,0.726c-0.343,0.976-0.592,1.98-0.795,3.007c-0.188,1.03-0.302,2.077-0.338,3.128
		c-0.028,1.056,0.021,2.122,0.145,3.168c0.271,2.103,0.838,4.175,1.686,6.125c0.421,0.979,0.909,1.93,1.46,2.844
		c0.276,0.467,0.566,0.914,0.878,1.36c0.158,0.224,0.317,0.441,0.49,0.665c0.084,0.106,0.17,0.224,0.264,0.33l0.14,0.173
		l0.079,0.097l0.099,0.106l0,0l1.795,1.828l1.767-1.884c0.957-1.025,1.976-2.077,2.986-3.103c1.013-1.026,2.037-2.047,3.067-3.067
		c1.033-1.011,2.069-2.021,3.12-3.017c1.043-1,2.1-1.99,3.162-2.976c1.061-0.985,2.133-1.96,3.204-2.925l1.614-1.452l1.625-1.427
		c1.097-0.95,2.188-1.895,3.296-2.823c1.102-0.939,2.219-1.854,3.336-2.773c1.117-0.903,2.245-1.812,3.382-2.701
		c1.128-0.898,2.285-1.762,3.433-2.635c1.158-0.863,2.306-1.727,3.483-2.555c1.163-0.848,2.356-1.655,3.535-2.473
		c1.198-0.803,2.381-1.61,3.595-2.367c1.209-0.787,2.438-1.523,3.656-2.27c1.239-0.716,2.468-1.447,3.728-2.122
		c1.238-0.701,2.519-1.331,3.788-1.98l1.595-0.823L113.213,87.188z"/>
</g>
<g>
</g>
<g>
</g>
<g>
</g>
<g>
</g>
<g>
</g>
<g>
</g>
<g>
</g>
<g>
</g>
<g>
</g>
<g>
</g>
<g>
</g>
<g>
</g>
<g>
</g>
<g>
</g>
<g>
</g>
</svg>
